<svg xmlns="http://www.w3.org/2000/svg" height="240" width="500" viewBox="0 0 500 240" fill="none" stroke="currentColor" aria-label="Arrow K">
  <path d="m 107,130 -2,3 h 4 z m -29,4 4,-4 4,4 M 180,0 V 115 M 500,45 420,115 M 500,15 390,115 M 358,115 485,0 M 455,0 327,115 M 425,0 295,115 M 395,0 265,115 M 362,0 235,115 M 204,115 330,0 M 157,0 157,115 M 132,0 V 115 M 108,0 V 115 M 83,0 V 115 M 58,0 V 115 M 33,0 V 115 M 7,115 7,0 M 7,130 V 240 M 33,135 V 240 M 57,135 V 240 M 82,130 v 110 m 25,-107 v 107 m 25,-110 v 110 m 26,-101 -1,101 M 180,130 V 240 M 211,135 328,240 M 236,130 357,240 M 272,135 390,240 M 297,130 420,240 M 332,133 450,240 M 362,132 480,240 M 391,130 500,230 m -77,-99 77,69 M 391,134 v -4 h 4 m -35,0 1,4 3,-3 z m -31,0 1,5 4,-4 z m -32,4 v -4 h 4 m -65,3 v -3 h 3 m -34,0 4,8 4,-5 z m -27,2 2,-2 2,2 m -24,-2 -3,9 h 6 z m -28,2 2,-2 2,2 m -101,-2 -3,5 h 6 z m -28,2 2,-2 2,2"/>
  <path d="m 57,130 -3,5 h 6 z m 365,3 v -3 h 3 z m -155,-3 3,8 5,-5 z" fill="currentColor" stroke="none"/>
</svg>
