<svg xmlns="http://www.w3.org/2000/svg" aria-label="Arrow >" viewBox="0 0 414 348" width="414" height="348">
  <path d="m 325,250 -10,20 -10,-10 z m -145,35 -20,10 10,10 z m 35,-65 v -5 h -5 M 345,200 V 190 H 335 M 130,95 H 120 L 130,85 Z M 200,90 180,80 190,70 Z M 315,25 310,10 300,20 Z M 100,35 h 10 V 25 m 255,220 50,-60 m 0,115 -45,50 m 45,-80 -80,80 M 415,230 295,350 m 50,-85 -85,85 m -35,0 85,-85 m 35,-75 -155,160 m -40,0 110,-110 M 85,275 10,350 M 90,300 40,350 M 215,215 75,350 m 40,0 50,-50 m 45,-200 75,75 -100,105 M 120,45 250,175 225,205 m -80,-95 70,70 -100,105 M 75,75 180,180 110,250 M 360,0 415,55 M 325,0 415,90 m -95,-60 95,95 M 290,0 305,15 M 255,0 415,160 M 230,15 395,175 330,245 M 180,0 355,175 M 150,0 325,175 275,225 M 110,0 185,75 M 75,0 110,35 M 35,0 125,90 M 0,0 45,45" stroke="currentColor" fill="none"/>
  <path d="m 270,230 -15,5 10,10 z m 90,20 -10,20 -10,-10 z M 100,260 90,280 80,270 Z M 213,0 v 0 l 12,5 V 0 Z M 60,60 40,50 50,40 Z" stroke="none" fill="currentColor"/>
</svg>
