<svg xmlns="http://www.w3.org/2000/svg" viewBox="0 0 185 120" width="185" height="120" fill="none" stroke="currentColor" aria-label="12 arrows pointing right">
  <path d="M 177 43 L 177 47 L 182 45 L 177 43 z M 177 103 L 177 107 L 182 105 L 177 103 z" fill="currentColor"/>
  <path d="m 162,95 -2,-1 v 2 z m -2,0 H 0 M 167,5 H 0 M 168,15 H 0 M 182,25 H 0 M 170,35 H 0 M 177,45 H 0 M 166,55 H 0 M 162,65 H 0 M 167,75 H 0 M 181.98261,84.991304 0,85 m 177,20 H 0 m 169,10 H 0 m 171,0 -2,-1 v 2 z m 9,-32 2,2 -2,2 m -10,-12 -3,-2 v 4 z m -6,-10 -2,-1 v 2 z m 6,-10 -4,-2 v 4 z m -2,-22 2,2 -2,2 m 12,-14 2,2 -2,2 m -9,-12 -3,-2 v 4 z m 0,-10 -4,-2 v 4 z"/>
</svg>
