<svg
  xmlns="http://www.w3.org/2000/svg" viewBox="0 0 34 34" fill="none" stroke="currentColor" aria-label="Image">
  <path d="M24.5 24.7l-4-11.4-4.8 8.5-3-4.2L9 24.7"/>
  <circle r="1.4" cy="13" cx="14"/>
  <path d="M2 9.4C1 9.4.4 8.8.4 8V6.6c0-.8.6-1.4 1.4-1.4h2.9V2.3c0-.7.6-1.4 1.4-1.4h1.4C8.4 1 9 1.6 9 2.3v2.9h18.4c.8 0 1.4.6 1.4 1.4V25h2.9c.7 0 1.4.6 1.4 1.4v1.4c0 .8-.6 1.5-1.4 1.5h-2.9V32c0 .8-.6 1.4-1.4 1.4H26c-.8 0-1.4-.6-1.4-1.4v-2.9H6.2c-.8 0-1.4-.6-1.4-1.4V9.4z"/>
  <rect rx=".5" height="15.6" width="15.6" y="9.4" x="9"/>
</svg>