<svg
  xmlns="http://www.w3.org/2000/svg" viewBox="0 0 29.7 29.1" fill="none" stroke="currentColor" aria-label="Mountain">
  <path d="M4.9 29.3l10.6-17a1.6 1.6 0 012.5 0l10.6 17z"/>
  <g stroke-linecap="round">
    <path d="M4.9 29.3H.5l4.4-7c.3-.3.7-.5 1.2-.6.5 0 1 .3 1.3.7l.8 1.6m2.2-3.6l3 2.5a1.3 1.3 0 001.7 0l.8-.9a1.3 1.3 0 011.7 0l.8.8a1.3 1.3 0 001.7 0l3-2.4m-6.4-8.6V.5M16.7.5h7c.3 0 .5.3.5.6v5c0 .4-.2.7-.6.7h-6.9"/>
    <path d="M24.2 3h3.2c.3 0 .6.3.6.6v5c0 .4-.3.7-.6.7h-3.8a.6.6 0 01-.6-.7V6.8"/>
  </g>
</svg>