<svg xmlns="http://www.w3.org/2000/svg" viewBox="0 0 24 24" width="24" height="24" fill="none" stroke="currentColor" aria-label="Community">
  <path d="m 21,9 a 2,2 0 0 1 -2,2 2,2 0 0 1 -2,-2 2,2 0 0 1 2,-2 2,2 0 0 1 2,2 M 14,7 a 2,2 0 0 1 -2,2 2,2 0 0 1 -2,-2 2,2 0 0 1 2,-2 2,2 0 0 1 2,2 M 7,9 A 2,2 0 0 1 5,11 2,2 0 0 1 3,9 2,2 0 0 1 5,7 2,2 0 0 1 7,9 M 19,3 A 2,2 0 0 1 17,5 2,2 0 0 1 15,3 2,2 0 0 1 17,1 2,2 0 0 1 19,3 M 9,3 A 2,2 0 0 1 7,5 2,2 0 0 1 5,3 2,2 0 0 1 7,1 2,2 0 0 1 9,3 Z m 1,14 H 8 v -5 c 0,-4 8,-4 8,0 v 5 H 14 M 3,17 H 1 v -4 c 0,-2 2,-2 4,-2 m 16,6 h 2 v -4 c 0,-2 -2,-2 -4,-2 m 2,5 v 7 m -2,-4 v 4 m -2,-7 v 7 M 14,15 v 8 m -2,-4 v 4 M 10,15 v 8 M 7,16 v 7 M 5,19 v 4 M 3,23 3,16"/>
</svg>
