<svg xmlns="http://www.w3.org/2000/svg" viewBox="0 0 24 24" width="24" height="24" stroke="currentColor" fill="currentColor" aria-label="Center point">
  <path d="M5.13 7.52l4.83 2.3-1.93-5zm-1.32 4.06l5.32-.45-4.18-3.34zm.89 4.15l4.38-3.05-5.29-.8zm2.84 3.16l2.28-4.83L4.84 16zm4.04 1.3l-.45-5.32-3.34 4.18zm4.14-.88l-3.04-4.39-.81 5.29zm3.15-2.83l-4.82-2.28 1.93 4.98zm1.32-4.05l-5.32.46 4.18 3.33zm-.88-4.14l-4.4 3.04 5.3.82zm-2.84-3.16L14.2 9.97l4.98-1.95zm-4.03-1.32l.44 5.32 3.35-4.17zm-4.15.88l3.04 4.4.82-5.3z" stroke="none"/>
  <path d="M6.58 6.18L4.4 3.83m-.05 5.82l-3.07-.93m2.97 5.08l-3.13.73m5.07 2.91l-2.34 2.19m5.84-.01l-.93 3.07m5.04-2.93l.72 3.12m2.9-5.05l2.19 2.35m0-5.86l3.08.93m-2.94-5.03l3.13-.72m-5.06-2.92l2.35-2.2m-5.84.01l.94-3.07m-5.05 2.93L9.5 1.12"/>
</svg>
