<svg xmlns="http://www.w3.org/2000/svg" aria-label="Technology experts" viewBox="0 0 24 24" width="24" height="24" fill="none" stroke="currentColor">
  <path d="M13 7v12"/>
  <path d="M 19,13 H 7 m 11,-3 c -3,1 -7,1 -10,0 m 2,8 v 3 m -7,0 c 0,-4 1,-5 5,-5 3,-1 7,-1 10,0 3,0 4,1 4,5"/>
  <path d="M7 14c-4 1-7-6-2-8 1-6 7-5 10-3 1-1 4-1 4 2 4 0 6 8 0 9m-6-7c-4 2-4 10 0 12h0c4-2 4-10 0-12z"/>
  <circle cx="13" cy="13" r="6"/>
  <circle cx="3" cy="22" r="1"/>
  <circle cx="22" cy="22" r="1"/>
  <circle cx="10" cy="22" r="1"/>
</svg>
