<svg xmlns="http://www.w3.org/2000/svg" viewBox="0 0 413 131" width="413" height="131" aria-label="Sprintwell">
  <path d="M350 115l-45-15v30zm-80-15l15 15-15 15m-45-15h60m-130 0l-25.3 15.5.3-30.5zm-60-15l15 15-15 15m-15-15h30m-85 0L5 125v-20z" fill="none" stroke="currentColor" stroke-width="4"/>
  <path d="M410 115l-45-15v30zm-205 0l-25 15.5V100zm-140 0l-20 10v-20zm332.9-89.7h-5.1V.5h5zm14.4 6.8h-19.5v-4.5h19.5zm-53.4-6.8h-5V.5h5zm14.4 6.8h-19.5v-4.5h19.5zM312.3.5h20.8v4.6h-15.7v22.4h16.2V32h-21.3zm7.3 12.6h9.6v4.4h-9.6zm-58.1 15l-2 4.5h-1.7L245.5.6h5.6zm20.2.3l-1.6 4.2h-1.7L269 10l-6.3 15-2.4-6.3L268 0h1.8zm1.2-3l-2.9-6.6L286.8.5h5.5zM202.4.5h26.3v4.6h-26.3zM213 7.3h5V32h-5zm-55.7-2.1V0h1.8l24.2 27.4v5.2h-1.7zm0 3.3l5 5.6v18h-5zm21 10V.4h5V24zM130 .4h5v31.6h-5zM85.5.5H97c6.4 0 10.7 4 10.7 9.7 0 5.8-4.3 9.7-10.7 9.7h-4.3v-4.5H97c3.6 0 5.6-2.2 5.6-5.2s-2-5.2-5.6-5.2h-6.4v27h-5zm12.4 21.6l5.2-1 8 11h-5.8zM65.5 10.2c0 5.7-4.3 9.7-10.7 9.7h-4.2v-4.5h4.2c3.5 0 5.5-2.2 5.5-5.2s-2-5.3-5.5-5.3h-6.4V32h-5.1V.5h11.5c6.4 0 10.7 4 10.7 9.7zM0 25.8L3.6 23c1.8 2.7 4.3 5 8.2 5a10.9 10.9 0 003.3-.5v4.7a11.7 11.7 0 01-3.2.4A13.4 13.4 0 010 25.8zm17.3-1.5c0-3.2-1.9-4.1-4.6-5.4l-3.5-1.6C5 15.3 1.8 13 1.8 8.6A7.8 7.8 0 017 1.2v6.6c0 3 1.8 3.8 4.4 5l3.5 1.7c4.8 2.2 7.6 4.6 7.6 9a8.2 8.2 0 01-5.2 7.8zM11.7 4.5a8.6 8.6 0 00-2.5.5V.4a9.7 9.7 0 012.6-.4A11.5 11.5 0 0122 5.6l-3.5 2.8a7.7 7.7 0 00-6.7-3.9z" fill="currentColor"/>
</svg>
