<svg
  xmlns="http://www.w3.org/2000/svg" viewBox="0 0 721 159.1" width="721" height="159" fill="currentColor" aria-label="Sprintwell Partners">
  <path d="M197 8h51v12h-38v13h36v12h-36v22h-13zM277 20v35h-17v12h47V55h-17V20h17V8h-47v12zM377 8v59h-13l-33-40v40h-13V8h13l33 40V8zM389 8h55v12h-41v12h39v11h-39v12h41v12h-55zM477 20h-23V8h60v12h-23v47h-14zM524 40V8h13v32c0 10 6 15 16 15s16-5 16-15V8h13v32c0 17-12 28-29 28-18 0-29-11-29-28zM652 8v59h-12l-34-40v40h-12V8h12l34 40V8zM664 8h56v12h-43v12h41v11h-41v12h43v12h-56zM197 91h36c14 0 23 7 23 18v1c0 12-9 19-23 19h-23v20h-13zm36 26c6 0 9-2 9-7v-1c0-4-3-6-9-6h-23v14zM317 146v3h-13l-5-12h-29l-6 12h-13v-3l26-55h15zm-23-21l-8-21h-3l-9 21zM386 111v-1c0-12-9-19-23-19h-36v58h13v-21h23l7 21h15l-9-23a16 16 0 0010-15zm-46-8h23c6 0 9 2 9 6v1c0 5-3 7-9 7h-23zM655 111v-1c0-12-8-19-22-19h-37v58h14v-21h23l6 21h15l-8-23a16 16 0 009-15zm-45-8h23c6 0 9 2 9 6v1c0 5-3 7-9 7h-23zM414 103h-22V91h58v12h-22v46h-14zM518 91v58h-13l-33-39v39h-13V91h13l33 39V91zM530 91h55v12h-42v11h40v12h-40v11h42v12h-55zM663 130v-1h13v1c0 6 6 9 17 9 9 0 15-3 15-7 0-3-3-5-10-6l-15-2c-13-2-19-7-19-16v-1c0-11 10-17 27-17 19 0 29 7 29 19v1h-13v-1c0-5-5-8-16-8-9 0-14 2-14 6v1c0 2 3 4 9 5l15 2c14 2 20 7 20 16v1c0 12-10 18-29 18s-29-7-29-20z"/>
  <path fill="#2e38ef" d="M0 89l10 32 23 25 30 13h34l30-13 23-25 10-32-4-33-16-29-27-20-33-7-33 7-27 20L4 56z"/>
  <path fill="#fff" d="M92 74a71 71 0 016 7c7-5 11-14 11-23 0-13-7-24-18-24-13 0-21 12-21 26 0 16 18 23 18 37 0 7-4 15-14 15-8 0-14-7-15-11l-10 4c2 7 11 17 25 17 17 0 25-13 25-26 0-16-18-24-18-35s4-16 10-16 8 6 8 13c0 9-3 13-7 16z"/>
  <path fill="#fff" d="M63 68l-5 10a40 40 0 0021 8c0-3-5-10-5-10l-11-8z"/>
</svg>