<svg
  xmlns="http://www.w3.org/2000/svg" viewBox="0 0 160 159.1" aria-label="Sprintwell Partners">
  <path fill="#2e38ef" d="M33 146l30 13h34l30-13 23-25 10-32-4-33-16-29-27-20-33-7-33 7-27 20L4 56 0 89l10 32z"/>
  <path fill="#fff" d="M92 74a71 71 0 016 7c7-5 11-14 11-23 0-13-7-24-18-24-13 0-21 12-21 26 0 16 18 23 18 37 0 7-4 15-14 15-8 0-14-7-15-11l-10 4c2 7 11 17 25 17 17 0 25-13 25-26 0-16-18-24-18-35s4-16 10-16 8 6 8 13c0 9-3 13-7 16z"/>
  <path fill="#fff" d="M63 68l-5 10a40 40 0 0021 8c0-3-5-10-5-10l-11-8z"/>
</svg>