<svg xmlns="http://www.w3.org/2000/svg" viewBox="0 0 24 24" width="24" height="24" fill="none" stroke="currentColor" aria-label="Sprintwell">
  <path fill="currentColor" d="M8 22l5-3-5-3z"/>
  <path d="M1 22l5-3-5-3z"/>
  <path d="M15 19h8"/>
  <path d="M19 15l4 4-4 4"/>
  <g stroke="none" fill="currentColor">
    <path d="M7 4l.8-.4c-1-1.3-2-1.6-3.5-1.4v1c1.2-.5 2.3 0 2.7.8zm-.2 6.5c.7-.4 1-1 1-2C7.9 7 6.4 6.6 5 6c-.8-.4-1.5-1-1.5-1.9V2.5c-.6.4-1 1-1 1.8C2.5 5.6 4 6.5 5 7s1.8.8 1.8 1.7zm-.8.3v-1c-1.4.6-2.5-.3-3.2-1.3L2 9c1.3 1.6 2.3 2.3 4 1.8z"/>
    <path d="M15.6 2h-.4L13 7.9l.5 1.3 2-5L18 11h.4l.3-.9zM10 2H9l3.3 9h.4l.3-1zm12 0h-1l-2.4 5.9.5 1.3z"/>
  </g>
</svg>
